<svg id="Layer_1" data-name="Layer 1" xmlns="http://www.w3.org/2000/svg" viewBox="0 0 280 300"><defs><style>.cls-1{fill:#00bef2;}</style></defs><path class="cls-1" d="M123,217a.49.49,0,0,0-.42-.25h-4.94a.47.47,0,0,0-.39.21l-10.24,14.78L97.31,217a.47.47,0,0,0-.39-.21H91.75a.46.46,0,0,0-.41.25.44.44,0,0,0,0,.48l12.83,19.61v18.06a.47.47,0,0,0,.14.33.43.43,0,0,0,.33.13h4.54a.44.44,0,0,0,.33-.13.47.47,0,0,0,.14-.33V237.08L123,217.52a.48.48,0,0,0,0-.48"/><path class="cls-1" d="M140.4,231.53a12,12,0,0,0-4.11-3.34,12.26,12.26,0,0,0-5.72-1.27,12.09,12.09,0,0,0-9.86,4.54,14,14,0,0,0-2.44,4.68,18.32,18.32,0,0,0,0,10.74,14.29,14.29,0,0,0,2.47,4.76,13,13,0,0,0,4.06,3.39l.22-.41-.2.42a12.66,12.66,0,0,0,5.72,1.24,12.18,12.18,0,0,0,9.83-4.62,14.36,14.36,0,0,0,2.44-4.69,18,18,0,0,0,0-10.74,14.31,14.31,0,0,0-2.44-4.7m-17.67,9.95a14.51,14.51,0,0,1,.5-3.77,10.64,10.64,0,0,1,1.47-3.28,7.53,7.53,0,0,1,2.43-2.27,7.44,7.44,0,0,1,6.87,0,7.69,7.69,0,0,1,2.47,2.28,10.18,10.18,0,0,1,1.49,3.29,14.73,14.73,0,0,1,0,7.61,10,10,0,0,1-1.49,3.3A8.12,8.12,0,0,1,134,251a6.48,6.48,0,0,1-3.43.87,6.36,6.36,0,0,1-3.37-.87,8.38,8.38,0,0,1-2.5-2.28,11.06,11.06,0,0,1-1.47-3.33,15,15,0,0,1-.5-3.86"/><path class="cls-1" d="M162.23,250.52a.46.46,0,0,0-.31-.23.52.52,0,0,0-.38.09,8.22,8.22,0,0,1-1.67,1,4.35,4.35,0,0,1-1.85.41,2.42,2.42,0,0,1-1.66-.54,3.07,3.07,0,0,1-.6-2.29V232.11h6.7a.43.43,0,0,0,.32-.14.45.45,0,0,0,.14-.32v-3.59a.48.48,0,0,0-.46-.46h-6.65v-6.93a.51.51,0,0,0-.13-.33.47.47,0,0,0-.33-.14H151a.47.47,0,0,0-.33.14.51.51,0,0,0-.13.33v6.93h-4.2a.4.4,0,0,0-.33.14.43.43,0,0,0-.14.32v3.59a.43.43,0,0,0,.14.32.42.42,0,0,0,.33.14h4.2v17.33a6.79,6.79,0,0,0,1.79,5.15,7.1,7.1,0,0,0,5,1.69,9.55,9.55,0,0,0,3.8-.61,13.76,13.76,0,0,0,2.68-1.59.47.47,0,0,0,.12-.6Z"/><path class="cls-1" d="M185.65,229.37a10.47,10.47,0,0,0-7.39-2.45A13.81,13.81,0,0,0,172.4,228a10.82,10.82,0,0,0-4.07,3.41.49.49,0,0,0,.11.67l3.07,2.15a.47.47,0,0,0,.63-.09,7.7,7.7,0,0,1,2.5-2.06,6.81,6.81,0,0,1,3.22-.78,5.19,5.19,0,0,1,3.85,1.34c.82.84,1.3,2.3,1.31,4.45a36.71,36.71,0,0,0-5.23.45,20.56,20.56,0,0,0-5.41,1.61,11.68,11.68,0,0,0-4.12,3.1,7.73,7.73,0,0,0-1.67,5.08,8.65,8.65,0,0,0,.85,3.91,8.42,8.42,0,0,0,2.19,2.79,9.44,9.44,0,0,0,3.11,1.68,11.76,11.76,0,0,0,3.59.56,10.93,10.93,0,0,0,4.24-.81,10.6,10.6,0,0,0,2.72-1.64l.13,1.4a.48.48,0,0,0,.47.42h4a.44.44,0,0,0,.46-.46V237.51c0-3.71-.85-6.46-2.68-8.14M183,241.51v7.72A13.82,13.82,0,0,1,180.3,251a7.67,7.67,0,0,1-3.46.77,6.17,6.17,0,0,1-1.73-.24,4.19,4.19,0,0,1-1.54-.76,4.59,4.59,0,0,1-1.16-1.37,4,4,0,0,1-.45-2,4.14,4.14,0,0,1,1-3,6.89,6.89,0,0,1,2.77-1.79,15.8,15.8,0,0,1,3.79-.85c1.21-.13,2.37-.22,3.46-.27"/><path class="cls-1" d="M175.41,95.56a46.54,46.54,0,0,0,13.31-32.69v-9a10.19,10.19,0,1,0-20.37,0v9a26.19,26.19,0,0,1-7.48,18.41,24.86,24.86,0,0,1-35.65,0,26.18,26.18,0,0,1-7.47-18.41v-9a10.19,10.19,0,0,0-20.38,0v9a46.55,46.55,0,0,0,13.32,32.69A45.36,45.36,0,0,0,132.86,108v21.45a45.37,45.37,0,0,0-22.17,12.47,46.54,46.54,0,0,0-13.32,32.69v9a10.19,10.19,0,0,0,20.38,0v-9a26.17,26.17,0,0,1,7.47-18.41,24.86,24.86,0,0,1,35.65,0,26.17,26.17,0,0,1,7.48,18.41v9a10.19,10.19,0,0,0,20.37,0v-9a46.53,46.53,0,0,0-13.31-32.69,45.46,45.46,0,0,0-22.17-12.47V108a45.44,45.44,0,0,0,22.17-12.46"/><path class="cls-1" d="M143.05,191.62A17.64,17.64,0,1,0,125.41,174a17.64,17.64,0,0,0,17.64,17.64"/></svg>